<svg width="16px" height="16px" viewBox="0 0 22 23" class="search-icon"><path d="M21.699167,19.7851568 C21.8996876,19.9856773 21.9999475,20.2291659 21.9999475,20.5156238 C21.9999475,20.8020816 21.8996876,21.0455702 21.699167,21.2460908 L20.4960449,22.4492129 C20.2955243,22.6497335 20.0520357,22.7499934 19.7655779,22.7499934 C19.47912,22.7499934 19.2356314,22.6497335 19.0351109,22.4492129 L14.7382461,18.1523482 C14.5377255,17.9518276 14.4374656,17.708339 14.4374656,17.4218811 L14.4374656,16.7343828 C12.833303,17.9947962 10.9999738,18.6250033 8.93747869,18.6250033 C7.30467008,18.6250033 5.80792908,18.2239628 4.44725502,17.4218811 C3.08658096,16.6197995 2.00520377,15.5384223 1.20312213,14.1777483 C0.401040492,12.8170742 0,11.3203332 0,9.68752459 C0,8.05471598 0.401040492,6.55797498 1.20312213,5.19730092 C2.00520377,3.83662686 3.08658096,2.75524967 4.44725502,1.95316803 C5.80792908,1.15108639 7.30467008,0.750045896 8.93747869,0.750045896 C10.5702873,0.750045896 12.0670283,1.15108639 13.4277024,1.95316803 C14.7883764,2.75524967 15.8697536,3.83662686 16.6718353,5.19730092 C17.4739169,6.55797498 17.8749574,8.05471598 17.8749574,9.68752459 C17.8749574,11.7500197 17.2447503,13.5833489 15.9843369,15.1875115 L16.6718353,15.1875115 C16.9582931,15.1875115 17.2017817,15.2877714 17.4023023,15.488292 L21.699167,19.7851568 Z M8.93747869,15.1875115 C9.94008025,15.1875115 10.8639062,14.9440223 11.7089565,14.4570445 C12.5540067,13.9700667 13.2200208,13.3040526 13.7069986,12.4590024 C14.1939764,11.6139521 14.4374656,10.6901261 14.4374656,9.68752459 C14.4374656,8.68492303 14.1939764,7.76109711 13.7069986,6.91604682 C13.2200208,6.07099653 12.5540067,5.4049825 11.7089565,4.91800471 C10.8639062,4.43102692 9.94008025,4.1875377 8.93747869,4.1875377 C7.93487713,4.1875377 7.01105121,4.43102692 6.16600092,4.91800471 C5.32095064,5.4049825 4.6549366,6.07099653 4.16795881,6.91604682 C3.68098103,7.76109711 3.4374918,8.68492303 3.4374918,9.68752459 C3.4374918,10.6901261 3.68098103,11.6139521 4.16795881,12.4590024 C4.6549366,13.3040526 5.32095064,13.9700667 6.16600092,14.4570445 C7.01105121,14.9440223 7.93487713,15.1875115 8.93747869,15.1875115 Z"></path></svg>